<svg width="82" height="83" viewBox="0 0 82 83" fill="none" xmlns="http://www.w3.org/2000/svg">
<g clip-path="url(#clip0_156_58)">
<path d="M7.32196 38.7787L74.4716 8.24023" stroke="#FF4433" stroke-width="6" stroke-linecap="round" stroke-linejoin="round"/>
<path d="M61.9176 3.50977L74.4717 8.23943L69.8004 20.7935" stroke="#FF4433" stroke-width="6" stroke-linecap="round" stroke-linejoin="round"/>
<path d="M77.4496 79.4182H62.8519V38.5445C62.8519 37.7702 63.1596 37.0276 63.7067 36.4801C64.2544 35.9326 64.9972 35.625 65.7714 35.625H74.5301C75.3043 35.625 76.0471 35.9326 76.5948 36.4801C77.1419 37.0276 77.4496 37.7702 77.4496 38.5445V79.4182Z" stroke="#FF4433" stroke-width="6" stroke-linecap="round" stroke-linejoin="round"/>
<path d="M48.2541 79.4184H33.6564V47.3033C33.6564 46.529 33.964 45.7864 34.5115 45.2389C35.059 44.6914 35.8016 44.3838 36.5759 44.3838H45.3346C46.1089 44.3838 46.8515 44.6914 47.399 45.2389C47.9465 45.7864 48.2541 46.529 48.2541 47.3033V79.4184Z" stroke="#FF4433" stroke-width="6" stroke-linecap="round" stroke-linejoin="round"/>
<path d="M19.0586 79.4185H4.46088V56.0621C4.46088 55.2878 4.76847 54.5452 5.31599 53.9977C5.86352 53.4502 6.6061 53.1426 7.38043 53.1426H16.1391C16.9134 53.1426 17.656 53.4502 18.2035 53.9977C18.751 54.5452 19.0586 55.2878 19.0586 56.0621V79.4185Z" stroke="#FF4433" stroke-width="6" stroke-linecap="round" stroke-linejoin="round"/>
</g>
<defs>
<clipPath id="clip0_156_58">
<rect width="81.7474" height="81.7474" fill="white" transform="translate(0.081543 0.589844)"/>
</clipPath>
</defs>
</svg>
