<svg width="80" height="87" viewBox="0 0 80 87" fill="none" xmlns="http://www.w3.org/2000/svg">
<path d="M55.5617 26.2091C55.2705 25.3773 54.8212 24.6208 54.2503 23.9766C53.0359 22.6064 51.271 21.7441 49.3068 21.7441H44.1733C40.9037 21.7441 38.2531 24.4208 38.2531 27.7225C38.2531 30.5319 40.1903 32.9624 42.9081 33.5627L50.7241 35.2893C53.7688 35.9619 55.9391 38.6866 55.9391 41.834C55.9391 45.5328 52.9697 48.5339 49.3068 48.5339H44.8854C41.9976 48.5339 39.541 46.6702 38.6305 44.0689" stroke="#FF4433" stroke-width="6" stroke-linecap="round" stroke-linejoin="round"/>
<path d="M47.0956 21.7434V15.0459" stroke="#FF4433" stroke-width="6" stroke-linecap="round" stroke-linejoin="round"/>
<path d="M47.0956 55.2306V48.5332" stroke="#FF4433" stroke-width="6" stroke-linecap="round" stroke-linejoin="round"/>
<path d="M45.1758 67.2743C62.7518 67.2743 77 52.886 77 35.1371C77 17.3883 62.7518 3 45.1758 3C27.5997 3 13.3516 17.3883 13.3516 35.1371C13.3516 52.886 27.5997 67.2743 45.1758 67.2743Z" stroke="#FF4433" stroke-width="6" stroke-linecap="round" stroke-linejoin="round"/>
<path d="M6.83044 36.5674C4.38742 41.1161 3 46.3272 3 51.8655C3 69.6133 17.2471 84.0004 34.8218 84.0004C39.8024 84.0004 44.5159 82.8446 48.7135 80.7847" stroke="#FF4433" stroke-width="6" stroke-linecap="round" stroke-linejoin="round"/>
</svg>
