<svg width="82" height="82" viewBox="0 0 82 82" fill="none" xmlns="http://www.w3.org/2000/svg">
<g clip-path="url(#clip0_156_34)">
<path d="M20.3189 61.6437C23.9579 61.6437 26.9079 58.6937 26.9079 55.0549C26.9079 51.4158 23.9579 48.4658 20.3189 48.4658C16.6799 48.4658 13.7299 51.4158 13.7299 55.0549C13.7299 58.6937 16.6799 61.6437 20.3189 61.6437Z" stroke="#FF4433" stroke-width="6" stroke-linecap="round" stroke-linejoin="round"/>
<path d="M8.45306 78.651C8.47402 76.642 9.00386 74.6712 9.99299 72.9225C12.0774 69.2377 16.0807 66.8979 20.3133 66.8887C24.5459 66.8979 28.5492 69.2377 30.6337 72.9225C31.6228 74.6712 32.1526 76.642 32.1736 78.651" stroke="#FF4433" stroke-width="6" stroke-linecap="round" stroke-linejoin="round"/>
<path d="M60.9888 61.6437C64.628 61.6437 67.578 58.6937 67.578 55.0549C67.578 51.4158 64.628 48.4658 60.9888 48.4658C57.3497 48.4658 54.3997 51.4158 54.3997 55.0549C54.3997 58.6937 57.3497 61.6437 60.9888 61.6437Z" stroke="#FF4433" stroke-width="6" stroke-linecap="round" stroke-linejoin="round"/>
<path d="M49.1229 78.651C49.1439 76.642 49.6737 74.6712 50.6629 72.9225C52.7473 69.2377 56.7506 66.8979 60.983 66.8887C65.2157 66.8979 69.2193 69.2377 71.3033 72.9225C72.2928 74.6712 72.8227 76.642 72.8435 78.651" stroke="#FF4433" stroke-width="6" stroke-linecap="round" stroke-linejoin="round"/>
<path d="M40.6311 24.2034C44.028 24.2034 46.7817 21.4497 46.7817 18.0529C46.7817 14.656 44.028 11.9023 40.6311 11.9023C37.2343 11.9023 34.4806 14.656 34.4806 18.0529C34.4806 21.4497 37.2343 24.2034 40.6311 24.2034Z" stroke="#FF4433" stroke-width="6" stroke-linecap="round" stroke-linejoin="round"/>
<path d="M29.1361 39.6236C29.1565 37.6758 29.6702 35.765 30.6292 34.0694C32.6503 30.4965 36.5319 28.2276 40.6358 28.2188C44.7398 28.2276 48.6214 30.4965 50.6425 34.0694C51.6015 35.7649 52.1153 37.6758 52.1356 39.6236" stroke="#FF4433" stroke-width="6" stroke-linecap="round" stroke-linejoin="round"/>
<path d="M68.2419 3.98535H13.032C10.7421 3.98535 8.88574 5.84172 8.88574 8.13163V35.4772C8.88574 37.7671 10.7421 39.6234 13.032 39.6234H68.2419C70.5314 39.6234 72.388 37.7671 72.388 35.4772V8.13163C72.388 5.84172 70.5314 3.98535 68.2419 3.98535Z" stroke="#FF4433" stroke-width="6" stroke-linecap="round" stroke-linejoin="round"/>
</g>
<defs>
<clipPath id="clip0_156_34">
<rect width="80.8211" height="80.8211" fill="white" transform="translate(0.226318 0.839844)"/>
</clipPath>
</defs>
</svg>
