<svg width="50" height="51" viewBox="0 0 50 51" fill="none" xmlns="http://www.w3.org/2000/svg">
<path d="M1.97027 0.754246C0.371749 2.50146 0 3.43084 0 5.4011C0 7.85464 0.594798 9.04424 2.86246 11.0517C6.09668 13.877 12.119 16.1446 18.29 16.851L20.4462 17.1112V22.6131C20.4462 25.6614 20.3346 28.1521 20.2231 28.1521C20.0744 28.1521 18.1785 27.1112 15.948 25.8101L11.896 23.5053V19.9736V16.442L10.5205 15.9959C9.73981 15.7729 8.81044 15.4383 8.43869 15.3268C7.84389 15.0666 7.80672 15.4011 7.88107 20.3826L7.99259 25.6986L14.1264 29.2302L20.2603 32.799L20.3718 37.7804L20.4833 42.7247L18.2529 40.9774L16.0224 39.2302L15.9108 35.141L15.7993 31.0889L13.8662 29.9737L11.896 28.8213V34.9179V40.9774L18.1413 45.7358L24.3495 50.457L24.4611 32.0183C24.4982 21.8324 24.4982 13.468 24.4239 13.4309C24.3495 13.3565 22.7138 13.1335 20.7807 12.9104C12.8997 12.0182 6.9517 9.82491 4.12641 6.77657C2.34202 4.84348 1.97027 3.61671 2.52789 1.60927C2.75094 0.754246 2.86246 0.047924 2.82529 0.0107498C2.78811 -0.0636024 2.37919 0.270973 1.97027 0.754246Z" fill="white"/>
<path d="M47.0261 0.456715C48.067 3.50505 47.5094 5.25227 44.7956 7.63146C41.7844 10.2709 35.316 12.3155 27.435 13.1333L25.2788 13.3192V31.9438V50.5312L26.5056 49.6391C27.1376 49.1186 30 46.9996 32.8253 44.8807L37.9183 41.0888V34.9922V28.8955L35.9852 30.0107L34.0149 31.126L33.9034 35.178L33.7919 39.2301L31.5985 40.9401L29.368 42.6874V37.7431L29.4052 32.7988L35.6134 29.2672L41.8216 25.7356L41.9331 20.3824C42.0075 15.401 41.9703 15.0664 41.3755 15.3267C41.0038 15.4382 40.0744 15.7728 39.3309 15.9958L37.9183 16.4419V19.9735V23.5051L33.829 25.81C31.5985 27.1111 29.6654 28.152 29.5539 28.152C29.4424 28.152 29.368 25.6241 29.368 22.5758V16.9995H30.3346C32.3049 16.9995 38.922 15.4382 41.5242 14.3229C49.5168 11.0144 52.1934 5.6612 48.1042 1.16304C47.2863 0.270844 46.8774 0.0106163 47.0261 0.456715Z" fill="white"/>
</svg>
